<?xml version="1.0" encoding="UTF-8"?>
<svg width="24px" height="24px" viewBox="0 0 24 24" version="1.1" xmlns="http://www.w3.org/2000/svg" xmlns:xlink="http://www.w3.org/1999/xlink">
    <title>01. Ontwerpprincipes/03. Icons/02. 24px/04. System/39. Telefoon</title>
    <g id="01.-Ontwerpprincipes/03.-Icons/02.-24px/04.-System/39.-Telefoon" stroke="none" stroke-width="1" fill="none" fill-rule="evenodd">
        <path d="M7,9.77636021 L7,18.1940901 L10.9285714,18.1940901 L10.9285714,9.77636021 L13.0714286,9.77636021 L13.0714286,18.1940901 L17,18.1940901 L17,9.77636021 L19.1428571,9.77636021 L19.1428571,18.1940901 L20.5714286,18.1940901 L20.5714286,19.597045 L22,19.597045 L22,21 L2,21 L2,19.597045 L5.93207143,19.5970801 C5.94032143,19.5698628 5.94821429,19.5004516 5.8325,19.4639747 L5.8325,19.4639747 L3.42875,18.9941602 L3.42875,18.9941602 L3.42857143,18.1940901 L4.85714286,18.1940901 L4.85714286,9.77636021 L7,9.77636021 Z M11.5320357,3.12495068 C11.8209643,2.95834977 12.1790357,2.95834977 12.4679643,3.12495068 L12.4679643,3.12495068 L20.75225,7.90201236 C20.8614643,7.96500504 20.9285714,8.08008242 20.9285714,8.20448946 L20.9285714,8.20448946 L20.9285714,9.07488272 L3.07142857,9.07488272 L3.07142857,8.20448946 C3.07142857,8.0801175 3.13853571,7.96500504 3.24775,7.90204744 L3.24775,7.90204744 Z M12,5.50274891 C11.3717857,5.50274891 10.8626429,6.00272699 10.8626429,6.61971152 C10.8626429,7.23669604 11.3717857,7.73667412 12,7.73667412 C12.6281786,7.73667412 13.1373571,7.23669604 13.1373571,6.61971152 C13.1373571,6.00272699 12.6281786,5.50274891 12,5.50274891 Z" id="Combined-Shape" fill="#154273"></path>
    </g>
</svg>