<svg width="64" height="64" viewBox="0 0 64 64" fill="none" xmlns="http://www.w3.org/2000/svg">
<path d="M38.0599 49.551H36.3182C35.9177 49.5445 34.4454 49.4182 33.9731 47.9184C33.6559 46.9118 33.3987 46.0648 33.2009 45.4002C33.2009 45.4002 29.6026 44.878 25.8633 44.1493C25.6015 44.0983 25.6334 43.9069 25.6636 43.8368H35.3635C35.1132 43.6289 34.8679 43.412 34.6332 43.1776C33.1871 41.7333 32.257 39.9742 31.8187 38.1225H11.0868V16.0816H43.7815V25.1986C45.213 25.4202 46.6069 25.9288 47.8683 26.7358V13.6327C47.8683 12.731 47.1364 12 46.2336 12H8.63473C7.73195 12 7 12.731 7 13.6327V42.1959C7 43.0976 7.73195 43.8286 8.63473 43.8286H22.1213C22.1213 43.8286 21.6846 45.4132 20.8952 47.9184C20.4229 49.4182 18.9506 49.5445 18.5501 49.551H16.8084C16.3566 49.551 15.991 49.9166 15.991 50.3673V52H38.8773V50.3673C38.8773 49.9166 38.5117 49.551 38.0599 49.551Z" fill="#154273"/>
<path d="M16.504 23.4154V18.5693H15.8865C15.3278 18.5693 14.7395 18.6573 14.1416 18.8335V19.6949C14.5926 19.6168 14.9354 19.5873 15.3964 19.5873V23.4155H16.504V23.4154Z" fill="#154273"/>
<path d="M20.291 18.4808C19.0262 18.4808 17.9678 19.4796 17.9678 21.0852C17.9678 22.7398 18.8498 23.5035 20.1636 23.5035C21.4084 23.5035 22.4868 22.5146 22.4868 20.909C22.4868 19.323 21.5753 18.4808 20.291 18.4808ZM20.2323 22.5635C19.5362 22.5635 19.0657 22.1426 19.0657 21.0266C19.0657 20.0277 19.5558 19.4206 20.2223 19.4206C20.9379 19.4206 21.3889 19.9005 21.3889 20.9285C21.3889 21.976 20.8888 22.5635 20.2323 22.5635Z" fill="#154273"/>
<path d="M25.4883 23.4154V18.5693H24.8709C24.3121 18.5693 23.7239 18.6573 23.126 18.8335V19.6949C23.577 19.6168 23.9198 19.5873 24.3808 19.5873V23.4155H25.4883V23.4154Z" fill="#154273"/>
<path d="M29.2744 18.4808C28.0096 18.4808 26.9512 19.4796 26.9512 21.0852C26.9512 22.7398 27.8332 23.5035 29.147 23.5035C30.3918 23.5035 31.4702 22.5146 31.4702 20.909C31.4702 19.323 30.5587 18.4808 29.2744 18.4808ZM29.2157 22.5635C28.5196 22.5635 28.0491 22.1426 28.0491 21.0266C28.0491 20.0277 28.5392 19.4206 29.2057 19.4206C29.9213 19.4206 30.3723 19.9005 30.3723 20.9285C30.3723 21.976 29.8722 22.5635 29.2157 22.5635Z" fill="#154273"/>
<path d="M34.4736 23.4154V18.5693H33.8562C33.2975 18.5693 32.7092 18.6573 32.1113 18.8335V19.6949C32.5624 19.6168 32.9052 19.5873 33.3661 19.5873V23.4155H34.4736V23.4154Z" fill="#154273"/>
<path d="M40.4546 20.909C40.4546 19.323 39.5431 18.4808 38.2587 18.4808C36.994 18.4808 35.9355 19.4796 35.9355 21.0852C35.9355 22.7398 36.8176 23.5035 38.1314 23.5035C39.3762 23.5035 40.4546 22.5146 40.4546 20.909ZM37.0334 21.0266C37.0334 20.0277 37.5235 19.4206 38.19 19.4206C38.9056 19.4206 39.3566 19.9005 39.3566 20.9285C39.3566 21.976 38.8565 22.5635 38.2 22.5635C37.504 22.5635 37.0334 22.1426 37.0334 21.0266Z" fill="#154273"/>
<path d="M18.73 27.4396C18.73 25.8536 17.8185 25.0114 16.5341 25.0114C15.2693 25.0114 14.2109 26.0102 14.2109 27.6158C14.2109 29.2704 15.093 30.0341 16.4068 30.0341C17.6516 30.0341 18.73 29.0452 18.73 27.4396ZM16.4755 29.0942C15.7794 29.0942 15.3089 28.6733 15.3089 27.5572C15.3089 26.5583 15.799 25.9512 16.4655 25.9512C17.1811 25.9512 17.632 26.4311 17.632 27.4591C17.632 28.5066 17.132 29.0942 16.4755 29.0942Z" fill="#154273"/>
<path d="M21.7325 29.946V25.0999H21.115C20.5563 25.0999 19.968 25.188 19.3701 25.3641V26.2255C19.8211 26.1474 20.1639 26.1179 20.6249 26.1179V29.9461H21.7325V29.946Z" fill="#154273"/>
<path d="M27.7144 27.4396C27.7144 25.8536 26.8028 25.0114 25.5185 25.0114C24.2537 25.0114 23.1953 26.0102 23.1953 27.6158C23.1953 29.2704 24.0773 30.0341 25.3912 30.0341C26.6359 30.0341 27.7144 29.0452 27.7144 27.4396ZM25.4598 29.0942C24.7638 29.0942 24.2933 28.6733 24.2933 27.5572C24.2933 26.5583 24.7834 25.9512 25.4499 25.9512C26.1655 25.9512 26.6164 26.4311 26.6164 27.4591C26.6164 28.5066 26.1163 29.0942 25.4598 29.0942Z" fill="#154273"/>
<path d="M30.7159 29.946V25.0999H30.0984C29.5397 25.0999 28.9514 25.188 28.3535 25.3641V26.2255C28.8045 26.1474 29.1473 26.1179 29.6083 26.1179V29.9461H30.7159V29.946Z" fill="#154273"/>
<path d="M34.4342 25.9512C35.1175 25.9512 35.5547 26.3946 35.5933 27.3289C35.9167 27.0749 36.2524 26.846 36.5966 26.6349C36.334 25.576 35.5463 25.0113 34.5029 25.0113C33.2381 25.0113 32.1797 26.0101 32.1797 27.6157C32.1797 28.7567 32.6059 29.4647 33.2972 29.8001C33.4851 29.5182 33.6862 29.2425 33.904 28.9758C33.5176 28.7859 33.2776 28.3491 33.2776 27.5571C33.2776 26.5583 33.7677 25.9512 34.4342 25.9512Z" fill="#154273"/>
<path d="M16.504 36.477V31.6305H15.8865C15.3278 31.6305 14.7395 31.7186 14.1416 31.8948V32.7561C14.5926 32.678 14.9354 32.6485 15.3964 32.6485V36.477H16.504Z" fill="#154273"/>
<path d="M20.1636 36.5647C21.4084 36.5647 22.4868 35.5762 22.4868 33.9707C22.4868 32.3842 21.5753 31.542 20.291 31.542C19.0262 31.542 17.9678 32.5409 17.9678 34.1468C17.9678 35.8009 18.8498 36.5647 20.1636 36.5647ZM20.2223 32.4818C20.9379 32.4818 21.3889 32.9618 21.3889 33.9898C21.3889 35.0373 20.8888 35.6248 20.2323 35.6248C19.5362 35.6248 19.0657 35.2039 19.0657 34.0878C19.0657 33.0889 19.5558 32.4818 20.2223 32.4818Z" fill="#154273"/>
<path d="M25.4883 36.477V31.6305H24.8709C24.3121 31.6305 23.7239 31.7186 23.126 31.8948V32.7561C23.577 32.678 23.9198 32.6485 24.3808 32.6485V36.477H25.4883Z" fill="#154273"/>
<path d="M29.147 36.5647C30.3918 36.5647 31.4702 35.5762 31.4702 33.9707C31.4702 32.3842 30.5587 31.542 29.2744 31.542C28.0096 31.542 26.9512 32.5409 26.9512 34.1468C26.9512 35.8009 27.8332 36.5647 29.147 36.5647ZM29.2057 32.4818C29.9213 32.4818 30.3723 32.9618 30.3723 33.9898C30.3723 35.0373 29.8722 35.6248 29.2157 35.6248C28.5196 35.6248 28.0491 35.2039 28.0491 34.0878C28.0491 33.0889 28.5392 32.4818 29.2057 32.4818Z" fill="#154273"/>
<path d="M56.3766 46.5625L49.7037 40.5339C51.9504 37.0562 51.5531 32.3694 48.5039 29.324C44.9927 25.8172 39.2999 25.8172 35.7886 29.324C32.2775 32.8308 32.2775 38.5163 35.7886 42.023C38.8378 45.0683 43.5306 45.4651 47.0128 43.2213L53.0491 49.8857C53.8932 50.8204 55.2435 50.6546 56.195 49.7043C57.1464 48.754 57.3125 47.4055 56.3766 46.5625ZM46.2499 39.7718C43.9835 42.0354 40.3091 42.0354 38.0427 39.7718C35.7765 37.5084 35.7765 33.8387 38.0427 31.5752C40.3091 29.3118 43.9835 29.3118 46.2499 31.5752C48.5162 33.8387 48.5162 37.5084 46.2499 39.7718Z" fill="#154273"/>
</svg>
