<?xml version="1.0" encoding="UTF-8"?>
<svg width="24px" height="24px" viewBox="0 0 24 24" version="1.1" xmlns="http://www.w3.org/2000/svg" xmlns:xlink="http://www.w3.org/1999/xlink">
    <title>01. Ontwerpprincipes/03. Icons/02. 24px/04. System/07. Kalender</title>
    <g id="01.-Ontwerpprincipes/03.-Icons/02.-24px/04.-System/07.-Kalender" stroke="none" stroke-width="1" fill="none" fill-rule="evenodd">
        <g id="Icon" transform="translate(2.000000, 2.000000)" fill="#154273">
            <path d="M14.7619048,0 C15.5238095,0 16.1904762,0.181818182 16.1904762,0.909090909 L16.1904762,0.909090909 L16.1904762,2.72727273 L18.5714286,2.72727273 C19.3333333,2.72727273 20,3.36363636 20,4.09090909 L20,4.09090909 L20,18.6363636 C20,19.3636364 19.3333333,20 18.5714286,20 L18.5714286,20 L1.42857143,20 C0.666666667,20 0,19.3636364 0,18.6363636 L0,18.6363636 L0,4.09090909 C0,3.36363636 0.666666667,2.72727273 1.42857143,2.72727273 L1.42857143,2.72727273 L3.80952381,2.72727273 L3.80952381,0.909090909 C3.80952381,0.181818182 4.47619048,0 5.23809524,0 C6,0 6.66666667,0.181818182 6.66666667,0.909090909 L6.66666667,0.909090909 L6.66666667,2.72727273 L13.3333333,2.72727273 L13.3333333,0.909090909 C13.3333333,0.181818182 14,0 14.7619048,0 Z M18.0952381,7.27272727 L1.9047619,7.27272727 L1.9047619,18.1818182 L18.0952381,18.1818182 L18.0952381,7.27272727 Z M6.66666667,13.6363636 L6.66666667,16.3636364 L3.80952381,16.3636364 L3.80952381,13.6363636 L6.66666667,13.6363636 Z M11.4285714,13.6363636 L11.4285714,16.3636364 L8.57142857,16.3636364 L8.57142857,13.6363636 L11.4285714,13.6363636 Z M16.1904762,13.6363636 L16.1904762,16.3636364 L13.3333333,16.3636364 L13.3333333,13.6363636 L16.1904762,13.6363636 Z M6.66666667,9.09090909 L6.66666667,11.8181818 L3.80952381,11.8181818 L3.80952381,9.09090909 L6.66666667,9.09090909 Z M11.4285714,9.09090909 L11.4285714,11.8181818 L8.57142857,11.8181818 L8.57142857,9.09090909 L11.4285714,9.09090909 Z M16.1904762,9.09090909 L16.1904762,11.8181818 L13.3333333,11.8181818 L13.3333333,9.09090909 L16.1904762,9.09090909 Z" id="Combined-Shape"></path>
        </g>
    </g>
</svg>