<?xml version="1.0" encoding="UTF-8"?>
<svg width="24px" height="24px" viewBox="0 0 24 24" version="1.1" xmlns="http://www.w3.org/2000/svg" xmlns:xlink="http://www.w3.org/1999/xlink">
    <title>01. Ontwerpprincipes/03. Icons/02. 24px/04. System/38. Marker</title>
    <g id="01.-Ontwerpprincipes/03.-Icons/02.-24px/04.-System/38.-Marker" stroke="none" stroke-width="1" fill="none" fill-rule="evenodd">
        <g id="Icon" transform="translate(6.000000, 2.000000)" fill="#154273">
            <path d="M6.50001809,0 C10.2056034,0 13,2.75946429 13,6.419 C13,8.54857143 11.9588637,10.1397857 10.7531852,11.9822857 C9.58184804,13.7718929 8.25436401,16.1543214 7.42778048,19.2923929 C7.31788056,19.709 6.93643335,20 6.50001809,20 C6.06360283,20 5.68215563,19.709 5.57221952,19.2923571 C4.74563599,16.1543214 3.41815196,13.7718571 2.24681485,11.98225 C1.04113627,10.13975 0,8.54853571 0,6.41896429 C0,2.75946429 2.79443277,0 6.50001809,0 Z M6.50001809,2.78571429 C4.46149564,2.78571429 2.80894376,4.41664286 2.80894376,6.42857143 C2.80894376,8.44042857 4.46149564,10.0714286 6.50001809,10.0714286 C8.53854055,10.0714286 10.1910924,8.44042857 10.1910924,6.42857143 C10.1910924,4.41664286 8.53854055,2.78571429 6.50001809,2.78571429 Z M6.50001809,4.64285714 C7.4992946,4.64285714 8.30936826,5.44234866 8.30936826,6.42857143 C8.30936826,7.4147942 7.4992946,8.21428571 6.50001809,8.21428571 C5.50074159,8.21428571 4.69066793,7.4147942 4.69066793,6.42857143 C4.69066793,5.44234866 5.50074159,4.64285714 6.50001809,4.64285714 Z" id="Combined-Shape"></path>
        </g>
    </g>
</svg>