<svg width="64" height="64" viewBox="0 0 64 64" fill="none" xmlns="http://www.w3.org/2000/svg">
<path d="M51.9119 10.1709C49.6001 9.13738 43.4905 7 32.5 7C21.5095 7 15.3999 9.13738 13.0881 10.1709C12.4212 10.4691 12 11.1328 12 11.8619V38.7719C12 41.9261 13.346 44.9295 15.6834 47.054C21.8955 52.7 28.8877 55.7839 31.4704 56.8033C32.1349 57.0656 32.8651 57.0656 33.5296 56.8033C36.1123 55.7839 43.1045 52.7 49.3166 47.054C51.654 44.9295 53 41.9261 53 38.7719V11.8619C53 11.1328 52.5788 10.4691 51.9119 10.1709ZM44.0956 21.1132L32.6141 40.0686C32.2943 40.5933 31.723 40.9129 31.1087 40.9129C31.1061 40.9129 31.105 40.9129 31.1024 40.9129C30.4855 40.911 29.9143 40.5869 29.597 40.0591L22.0819 27.5494C21.6376 26.8089 21.7975 25.8556 22.4614 25.3005C23.1227 24.7446 24.0911 24.7522 24.7474 25.3182L30.9513 30.6783L41.2765 19.0294C41.8832 18.3527 42.9062 18.2484 43.6399 18.789C44.3711 19.3295 44.569 20.3372 44.0956 21.1132Z" fill="#154273"/>
</svg>
