<svg width="64" height="64" viewBox="0 0 64 64" fill="none" xmlns="http://www.w3.org/2000/svg">
<path d="M35.5 40.3C36 40.2 36.1 39.5 35.7 39.2L27.7 33.9C27.3 33.7 26.9 34 27 34.4L29.2 43.4C29.3 43.9 29.9 44 30.3 43.6L31.4 42.2L34.2 45.9L36.4 44.2L33.7 40.7L35.5 40.3ZM19.5 34L20.7 30.2L21.7 34H24L25.8 27H24L23 32.6H22.9L21.4 27H19.7L20.1 28.3L18.7 32.6H18.6L17.5 27H15.5L17.3 34H19.5ZM54 12H10C8.3 12 7 13.3 7 15V49C7 50.7 8.3 52 10 52H54C55.7 52 57 50.7 57 49V15C57 13.3 55.7 12 54 12ZM16.5 14C17.3 14 18 14.7 18 15.5C18 16.3 17.3 17 16.5 17C15.7 17 15 16.3 15 15.5C15 14.7 15.7 14 16.5 14ZM11.5 14C12.3 14 13 14.7 13 15.5C13 16.3 12.3 17 11.5 17C10.7 17 10 16.3 10 15.5C10 14.7 10.7 14 11.5 14ZM54 49H10V19H54V49ZM30.9 33.6L32 30.1L33 33.9H35.3L37.1 26.9H35.3L34.2 32.5H34.1L32.7 27H31L31.4 28.3L30 32.6H29.9L28.8 27H26.8L28 31.7L30.9 33.6ZM42.1 34L43.3 30.2L44.3 34H46.6L48.4 27H46.6L45.5 32.6H45.4L44 27H42.3L42.7 28.3L41.3 32.6H41.2L40.1 27H38.1L39.9 34H42.1Z" fill="#154273"/>
</svg>
