<svg width="491" height="412" viewBox="0 0 491 412" fill="none" xmlns="http://www.w3.org/2000/svg">
<path d="M55.2906 227.457C59.1818 227.457 62.3362 224.3 62.3362 220.407C62.3362 216.513 59.1818 213.356 55.2906 213.356C51.3995 213.356 48.2451 216.513 48.2451 220.407C48.2451 224.3 51.3995 227.457 55.2906 227.457Z" fill="#76D2B6"/>
<path d="M86.1832 285.487C90.0744 285.487 93.2287 282.331 93.2287 278.437C93.2287 274.543 90.0744 271.386 86.1832 271.386C82.2921 271.386 79.1377 274.543 79.1377 278.437C79.1377 282.331 82.2921 285.487 86.1832 285.487Z" fill="#76D2B6"/>
<path d="M62.3365 270.844C66.2277 270.844 69.3821 267.687 69.3821 263.794C69.3821 259.9 66.2277 256.743 62.3365 256.743C58.4454 256.743 55.291 259.9 55.291 263.794C55.291 267.687 58.4454 270.844 62.3365 270.844Z" fill="#76D2B6"/>
<path d="M344.316 396.124H224.393C224.393 396.124 221.963 360.447 236.345 360.041C250.728 359.636 249.107 375.853 267.136 353.555C285.165 331.256 307.043 332.473 309.879 345.649C312.715 358.825 304.409 369.366 319.602 366.123C334.795 362.879 356.673 371.393 344.316 396.124Z" fill="#76D2B6"/>
<path d="M282.33 396.132L281.925 396.116C282.869 372.626 287.785 357.534 291.743 349.01C296.04 339.754 300.181 336.007 300.222 335.97L300.492 336.273C300.451 336.309 296.358 340.019 292.095 349.212C288.159 357.701 283.27 372.731 282.33 396.132Z" fill="#F9F9F9"/>
<path d="M325.733 396.181L325.344 396.067C330.027 379.982 341.055 369.825 341.166 369.725L341.439 370.025C334.123 377.31 328.727 386.297 325.733 396.181Z" fill="#F9F9F9"/>
<path d="M243.281 396.152L242.88 396.096C244.187 387.29 242.804 378.293 238.911 370.287C237.314 366.929 235.201 363.843 232.647 361.141L232.928 360.848C235.514 363.583 237.656 366.708 239.274 370.108C243.203 378.186 244.6 387.265 243.281 396.152Z" fill="#F9F9F9"/>
<path d="M360.591 396.666H211.458L211.424 396.161C211.338 394.903 209.436 365.239 219.041 354.655C220.968 352.394 223.76 351.053 226.728 350.964C232.989 350.785 236.924 353.132 240.097 355.016C246.079 358.567 250.03 360.913 264.397 343.143C279.961 323.893 296.754 319.752 306.408 322.054C312.645 323.543 316.944 327.749 318.202 333.594C319.394 339.129 319.014 344.33 318.709 348.509C318.383 352.981 318.125 356.513 319.961 358.113C321.493 359.449 324.55 359.57 329.583 358.495C339.82 356.31 354.103 358.18 361.273 367.449C365.13 372.436 368.168 381.501 360.741 396.367L360.591 396.666ZM212.476 395.582H359.92C365.455 384.345 365.628 374.852 360.415 368.113C353.839 359.61 340.04 357.372 329.809 359.556C324.341 360.724 321.083 360.531 319.248 358.931C317.005 356.974 317.28 353.204 317.628 348.43C317.928 344.321 318.301 339.206 317.143 333.823C315.976 328.402 311.972 324.497 306.156 323.11C296.811 320.878 280.487 324.968 265.24 343.825C250.284 362.323 245.779 359.649 239.544 355.949C236.332 354.042 232.684 351.88 226.759 352.048C224.087 352.134 221.575 353.345 219.843 355.384C211.211 364.897 212.265 391.571 212.476 395.582Z" fill="white"/>
<path d="M389.898 395.987H175.963V397.071H389.898V395.987Z" fill="white"/>
<path d="M162.338 280.812C162.528 282.131 162.535 283.469 162.36 284.79C162.324 285.089 162.278 285.384 162.225 285.674L162.226 285.677C161.597 288.801 160.341 291.766 158.534 294.391C158.416 294.561 158.348 294.65 158.348 294.65L158.095 294.457C156.088 292.853 154.348 290.941 152.939 288.793C152.816 288.598 152.692 288.401 152.574 288.199C151.527 286.488 150.821 284.591 150.496 282.611L150.491 282.583C150.46 282.372 150.433 282.16 150.413 281.95C150.248 280.101 150.407 278.237 150.882 276.442C150.939 276.218 150.998 275.998 151.062 275.78C151.783 273.367 152.874 271.081 154.296 269.003C154.414 268.833 154.482 268.745 154.482 268.745C154.482 268.745 154.572 268.81 154.735 268.938C156.685 270.496 158.384 272.345 159.772 274.42C159.894 274.606 160.014 274.794 160.132 274.988C160.945 276.296 161.571 277.711 161.993 279.191C162.065 279.45 162.13 279.714 162.185 279.98C162.246 280.253 162.296 280.531 162.338 280.812Z" fill="#599E89"/>
<path d="M228.058 308.254C228.912 309.277 229.62 310.412 230.163 311.629C230.289 311.903 230.405 312.177 230.512 312.452L230.513 312.454C231.617 315.444 232.102 318.627 231.94 321.811C231.929 322.018 231.918 322.129 231.918 322.129L231.601 322.097C229.052 321.786 226.568 321.072 224.242 319.983C224.035 319.882 223.827 319.779 223.62 319.669C221.832 318.762 220.236 317.518 218.921 316.004L218.902 315.982C218.765 315.819 218.631 315.653 218.504 315.485C217.393 313.997 216.551 312.327 216.015 310.549C215.946 310.329 215.881 310.111 215.821 309.892C215.169 307.459 214.899 304.94 215.02 302.425C215.031 302.218 215.042 302.107 215.042 302.107C215.042 302.107 215.154 302.115 215.359 302.139C217.836 302.441 220.252 303.123 222.522 304.16C222.723 304.254 222.924 304.352 223.126 304.454C224.504 305.141 225.779 306.017 226.915 307.055C227.112 307.238 227.305 307.429 227.492 307.626C227.687 307.827 227.876 308.036 228.058 308.254Z" fill="#599E89"/>
<path d="M237.86 182.024L235.14 227.387C235.14 227.387 226.073 252.79 237.86 252.79C249.646 252.79 242.393 225.572 242.393 225.572L253.272 181.117L237.86 182.024Z" fill="#FFB9B9"/>
<path d="M325.803 176.58L328.523 221.943C328.523 221.943 337.59 247.347 325.803 247.347C314.017 247.347 321.27 220.129 321.27 220.129L310.391 175.673L325.803 176.58Z" fill="#FFB9B9"/>
<path d="M271.405 368.92L273.219 391.601C273.219 391.601 265.965 409.746 277.752 411.561C277.87 411.579 277.986 411.596 278.102 411.613C281.066 412.021 284.046 410.985 286.119 408.826C288.192 406.667 289.108 403.645 288.582 400.698L286.818 390.694C286.818 390.694 287.725 372.549 282.285 368.92C276.845 365.291 271.405 368.92 271.405 368.92Z" fill="#2F2E41"/>
<path d="M288.631 348.96C288.631 348.96 286.818 354.403 287.725 359.847C288.631 365.291 289.538 380.714 289.538 380.714C289.538 380.714 289.538 397.045 295.884 397.045C298.151 397.045 300.071 395.077 301.602 392.548C304.804 387.127 305.647 380.63 303.936 374.57L300.417 361.661V351.682L288.631 348.96Z" fill="#2F2E41"/>
<path d="M255.086 182.931C255.086 182.931 235.14 209.242 246.02 248.254C256.899 287.266 257.806 298.153 257.806 298.153L264.152 372.549C264.152 372.549 275.032 376.178 284.098 370.734L281.378 299.06V255.512L286.818 303.597V351.682C286.818 351.682 299.511 364.383 308.578 352.589L310.391 299.06C310.391 299.06 315.831 224.665 312.204 217.407C308.578 210.149 300.418 184.746 300.418 184.746L255.086 182.931Z" fill="#333333"/>
<path d="M273.142 60.5168C273.142 60.5168 263.922 57.2215 257.994 70.4025C252.067 83.5835 242.847 98.0825 242.847 98.0825L248.115 99.4006C248.115 99.4006 249.433 90.1739 252.726 88.8558L251.408 100.719C251.408 100.719 290.924 114.559 308.706 99.4006L308.047 94.7873C308.047 94.7873 310.682 95.4463 310.682 99.4006L312.658 97.4235C312.658 97.4235 310.682 93.4692 304.754 88.1968C300.864 84.7362 299.527 78.1525 299.068 74.0363C298.723 70.5992 297.349 67.3465 295.125 64.7047C291.186 60.1364 284.009 55.281 273.142 60.5168Z" fill="black"/>
<path d="M277.751 103.999C287.265 103.999 294.977 96.2816 294.977 86.7613C294.977 77.2411 287.265 69.5234 277.751 69.5234C268.238 69.5234 260.525 77.2411 260.525 86.7613C260.525 96.2816 268.238 103.999 277.751 103.999Z" fill="#FFB9B9"/>
<path d="M273.219 97.6485L267.779 119.423L284.099 166.6L296.792 116.701C296.792 116.701 285.005 108.536 287.725 97.6485H273.219Z" fill="#FFB9B9"/>
<path d="M317.644 221.943C317.644 221.943 291.351 231.923 285.912 216.5C280.472 201.076 281.378 189.282 281.378 189.282C281.378 189.282 273.219 221.036 259.619 221.036C246.02 221.036 238.767 216.5 238.767 216.5C238.767 216.5 248.74 184.746 257.806 179.302C257.806 179.302 257.851 179.193 257.933 178.994C258.441 177.723 260.236 172.688 258.975 168.261C258.72 167.35 258.325 166.484 257.806 165.693C254.179 160.25 250.553 158.435 251.459 144.826L244.206 119.423L269.22 113.653L282.285 154.806L294.18 114.514L315.831 117.608C315.831 117.608 317.644 150.27 308.577 162.064C307.152 163.922 306.071 166.021 305.386 168.261C303.809 173.269 304.18 178.54 305.033 182.75H305.042C305.611 185.62 306.492 188.419 307.671 191.096L317.644 221.943Z" fill="#154273"/>
<path d="M310.391 118.516L315.83 117.608C315.83 117.608 318.097 117.155 322.177 120.33C327.387 124.385 327.617 179.302 327.617 179.302L310.391 180.209V118.516Z" fill="#154273"/>
<path d="M248.74 121.237L244.207 119.423C244.207 119.423 242.393 118.515 241.487 123.959C240.58 129.403 236.047 185.653 236.047 185.653L255.086 184.746V143.919L248.74 121.237Z" fill="#154273"/>
<path d="M257.828 89.2709C257.828 89.2709 263.096 82.0214 267.706 80.7033C272.317 79.3852 272.975 72.7947 272.975 72.7947C272.975 72.7947 284.83 85.9757 292.074 86.6347C299.319 87.2938 292.733 70.8176 292.733 70.8176L279.561 67.5223L267.048 68.8404L257.169 75.4309L257.828 89.2709Z" fill="black"/>
<path d="M282.739 178.848C285.743 178.848 288.178 176.411 288.178 173.405C288.178 170.398 285.743 167.961 282.739 167.961C279.734 167.961 277.299 170.398 277.299 173.405C277.299 176.411 279.734 178.848 282.739 178.848Z" fill="#333333"/>
<path d="M376.261 96.1579C366.556 68.8047 378.274 38.4599 403.837 24.7438C429.4 11.0277 461.141 18.0539 478.539 41.2793C495.936 64.5048 493.77 96.964 473.443 117.67C453.116 138.375 420.722 141.117 397.208 124.123C392.881 131.611 384.047 135.23 375.716 132.926C367.384 130.623 361.659 122.98 361.787 114.332C361.915 105.683 367.865 98.2128 376.261 96.1579Z" fill="#76D2B6"/>
<path d="M409.499 80.8891C413.251 80.8891 416.292 77.8459 416.292 74.0919C416.292 70.338 413.251 67.2948 409.499 67.2948C405.748 67.2948 402.707 70.338 402.707 74.0919C402.707 77.8459 405.748 80.8891 409.499 80.8891Z" fill="white"/>
<path d="M432.673 80.8891C436.425 80.8891 439.466 77.8459 439.466 74.0919C439.466 70.338 436.425 67.2948 432.673 67.2948C428.922 67.2948 425.881 70.338 425.881 74.0919C425.881 77.8459 428.922 80.8891 432.673 80.8891Z" fill="white"/>
<path d="M455.847 80.8891C459.598 80.8891 462.64 77.8459 462.64 74.0919C462.64 70.338 459.598 67.2948 455.847 67.2948C452.096 67.2948 449.055 70.338 449.055 74.0919C449.055 77.8459 452.096 80.8891 455.847 80.8891Z" fill="white"/>
<path d="M370.455 121.769C361.51 119.473 355.226 111.443 355.141 102.203C355.059 92.9617 361.196 84.8199 370.098 82.3621C360.181 53.5438 372.703 21.7902 399.614 7.51462C426.524 -6.76092 459.815 0.690185 478.084 25.0778C496.353 49.4655 494.163 83.5317 472.923 105.376C451.682 127.221 417.712 130.343 392.851 112.735C388.151 120.308 379.09 123.963 370.455 121.769ZM443.797 3.11424C421.996 -2.47798 398.89 4.42067 383.715 21.0527C368.54 37.6848 363.772 61.3372 371.316 82.5559L371.517 83.1216L370.935 83.2649C362.403 85.3521 356.357 92.9426 356.226 101.731C356.096 110.519 361.913 118.286 370.379 120.626C378.845 122.966 387.822 119.289 392.218 111.68L392.518 111.159L393.005 111.511C412.856 125.866 439.37 126.921 460.297 114.188C481.224 101.455 492.489 77.4131 488.888 53.1708C485.287 28.9285 467.52 9.20549 443.797 3.11424Z" fill="white"/>
<path d="M64.5836 363.867C64.4592 363.663 61.5265 358.763 60.5098 348.588C59.5773 339.253 60.1769 323.517 68.3318 301.568C83.7809 259.987 64.7714 226.436 64.5772 226.102L65.5151 225.558C65.5643 225.642 70.4695 234.196 73.3672 247.817C77.196 265.876 75.8018 284.652 69.348 301.946C53.9253 343.457 65.3912 363.108 65.5087 363.301L64.5836 363.867Z" fill="white"/>
<path d="M58.5426 224.203C54.3521 224.203 50.9551 220.804 50.9551 216.61C50.9551 212.417 54.3521 209.018 58.5426 209.018C62.733 209.018 66.1301 212.417 66.1301 216.61C66.1254 220.802 62.7311 224.198 58.5426 224.203ZM58.5426 210.102C54.9508 210.102 52.039 213.016 52.039 216.61C52.039 220.205 54.9508 223.118 58.5426 223.118C62.1344 223.118 65.0461 220.205 65.0461 216.61C65.042 213.018 62.1327 210.106 58.5426 210.102Z" fill="white"/>
<path d="M80.7633 249.693C84.6544 249.693 87.8088 246.536 87.8088 242.642C87.8088 238.749 84.6544 235.592 80.7633 235.592C76.8722 235.592 73.7178 238.749 73.7178 242.642C73.7178 246.536 76.8722 249.693 80.7633 249.693Z" fill="#599E89"/>
<path d="M65.5885 267.59C61.398 267.59 58.001 264.191 58.001 259.997C58.001 255.804 61.398 252.405 65.5885 252.405C69.7789 252.405 73.176 255.804 73.176 259.997C73.1713 264.189 69.777 267.585 65.5885 267.59ZM65.5885 253.489C61.9966 253.489 59.0849 256.403 59.0849 259.997C59.0849 263.592 61.9966 266.505 65.5885 266.505C69.1803 266.505 72.092 263.592 72.092 259.997C72.088 256.405 69.1786 253.493 65.5885 253.489Z" fill="white"/>
<path d="M84.0152 282.233C79.8248 282.233 76.4277 278.834 76.4277 274.64C76.4277 270.447 79.8248 267.048 84.0152 267.048C88.2057 267.048 91.6027 270.447 91.6027 274.64C91.598 278.832 88.2037 282.228 84.0152 282.233ZM84.0152 268.132C80.4234 268.132 77.5117 271.046 77.5117 274.64C77.5117 278.235 80.4234 281.148 84.0152 281.148C87.607 281.148 90.5188 278.235 90.5188 274.64C90.5148 271.048 87.6054 268.136 84.0152 268.132Z" fill="white"/>
<path d="M350.119 339.179C354.01 339.179 357.164 336.022 357.164 332.128C357.164 328.234 354.01 325.078 350.119 325.078C346.228 325.078 343.073 328.234 343.073 332.128C343.073 336.022 346.228 339.179 350.119 339.179Z" fill="#76D2B6"/>
<path d="M347.952 335.925C343.761 335.925 340.364 332.525 340.364 328.332C340.364 324.138 343.761 320.739 347.952 320.739C352.142 320.739 355.539 324.138 355.539 328.332C355.535 332.523 352.14 335.92 347.952 335.925ZM347.952 321.824C344.36 321.824 341.448 324.738 341.448 328.332C341.448 331.926 344.36 334.84 347.952 334.84C351.544 334.84 354.455 331.926 354.455 328.332C354.451 324.739 351.542 321.828 347.952 321.824Z" fill="white"/>
<path d="M149.05 378.769C152.942 378.769 156.096 375.613 156.096 371.719C156.096 367.825 152.942 364.669 149.05 364.669C145.159 364.669 142.005 367.825 142.005 371.719C142.005 375.613 145.159 378.769 149.05 378.769Z" fill="#76D2B6"/>
<path d="M146.883 375.515C142.693 375.515 139.296 372.116 139.296 367.922C139.296 363.729 142.693 360.33 146.883 360.33C151.074 360.33 154.471 363.729 154.471 367.922C154.466 372.114 151.072 375.51 146.883 375.515ZM146.883 361.414C143.292 361.414 140.38 364.328 140.38 367.922C140.38 371.517 143.292 374.431 146.883 374.431C150.475 374.431 153.387 371.517 153.387 367.922C153.383 364.33 150.474 361.418 146.883 361.414Z" fill="white"/>
<path d="M60.1686 304.469C64.0597 304.469 67.2141 301.312 67.2141 297.419C67.2141 293.525 64.0597 290.368 60.1686 290.368C56.2774 290.368 53.123 293.525 53.123 297.419C53.123 301.312 56.2774 304.469 60.1686 304.469Z" fill="#599E89"/>
<path d="M68.8402 364.126C68.8402 364.126 61.7947 346.771 82.9312 333.755L68.8402 364.126Z" fill="#599E89"/>
<path d="M60.1755 363.811C60.1755 363.811 56.969 345.356 32.1514 345.514L60.1755 363.811Z" fill="#599E89"/>
<path d="M114.365 363.042H0.552734V364.126H114.365V363.042Z" fill="white"/>
</svg>
